<?xml version="1.0" encoding="utf-8"?>
<!-- Generator: Adobe Illustrator 19.1.0, SVG Export Plug-In . SVG Version: 6.00 Build 0)  -->
<svg version="1.1" id="Layer_1" xmlns="http://www.w3.org/2000/svg" xmlns:xlink="http://www.w3.org/1999/xlink" x="0px" y="0px"
	 viewBox="639 272.9 1262.8 203.1" style="enable-background:new 639 272.9 1262.8 203.1;" xml:space="preserve">
<style type="text/css">
	.st0{fill:#9C9EA1;}
	.st1{fill:none;}
	.st2{fill:#F26723;}
	.st3{fill:#9D9FA2;}
</style>
<g id="bg">
</g>
<g>
	<g>
		<polygon class="st0" points="1469.6,408.4 1512.2,408.4 1512.2,399.3 1478.7,399.3 1478.7,379.1 1505.9,379.1 1505.9,370.1 
			1478.7,370.1 1478.7,344.9 1512.2,344.9 1512.2,335.8 1469.6,335.8 		"/>
		<path class="st0" d="M1803.3,344.9c8.3,0,15.1,6.8,15.1,15.1h9.1c0-13.3-10.8-24.2-24.2-24.2s-24.2,10.8-24.2,24.2v24.2
			c0,13.3,10.8,24.2,24.2,24.2s24.2-10.8,24.2-24.2h-9.1c0,8.3-6.8,15.1-15.1,15.1c-8.3,0-15.1-6.8-15.1-15.1v-24.2
			C1788.2,351.7,1794.9,344.9,1803.3,344.9z"/>
		<polygon class="st0" points="1901.8,341.9 1895.4,335.5 1867.2,363.5 1867.2,335.7 1858.2,335.7 1858.2,408.3 1867.2,408.3 
			1867.2,380.6 1895.4,408.5 1901.8,402.1 1871.5,372 		"/>
		<path class="st0" d="M1404.1,344.7h25.7v39.5c0,8.3-6.8,15.1-15.1,15.1s-15.1-6.8-15.1-15.1v-10.7h-9.1v10.7
			c0,13.3,10.8,24.2,24.2,24.2s24.2-10.8,24.2-24.2v-48.6H1404v9H1404.1z"/>
		<path class="st0" d="M1713,335.7l-22.8,73.4l8.7,2.7l7.7-24.7h26.3l7.7,24.7l8.7-2.7l-22.8-73.4H1713z M1709.4,377.9l10.3-33.2
			h0.1l10.3,33.2H1709.4z"/>
		<path class="st0" d="M1647.6,335.7H1631h-6.2v72.6h9.1V379h13.7c12,0,21.7-9.7,21.7-21.7C1669.2,345.4,1659.5,335.7,1647.6,335.7z
			 M1647.6,369.9h-13.7v-25.2h13.7c6.9,0,12.6,5.7,12.6,12.6S1654.5,369.9,1647.6,369.9z"/>
		<polygon class="st0" points="1542.9,344.8 1563.7,344.8 1563.7,408.3 1572.8,408.3 1572.8,344.8 1593.6,344.8 1593.6,335.8 
			1542.9,335.8 		"/>
	</g>
	<g>
		<path class="st0" d="M928.3,361.4c0-13.3-10.8-24.1-24.2-24.1c-13.3,0-24.2,10.8-24.2,24.2v24.3c0,13.3,10.8,24.2,24.2,24.2
			c13.3,0,24.2-10.8,24.2-24.2V361.4z M919.2,385.7c0,8.3-6.8,15.1-15.1,15.1s-15.1-6.8-15.1-15.1v-24.3c0-8.3,6.8-15.1,15.1-15.1
			s15.1,6.9,15.1,15.2V385.7z"/>
		<path class="st0" d="M1003.4,410.1c2.8,0,4.9-0.6,5.1-0.6l-2.4-8.8c-0.1,0-6.6,1.7-9.5-2.9c-2.9-4.7-7-12.3-9.9-17.8
			c9.7-2.1,17.1-10.8,17.1-21.2c0-12-9.7-21.6-21.7-21.6h-22.7v72.6h9.1v-29.3h8.3c2.7,5.1,8.3,15.8,12.2,22c2.7,4.4,7,6.9,12.5,7.4
			C1002.1,410.1,1002.8,410.1,1003.4,410.1z M968.5,371.5v-25.2h13.7c7,0,12.6,5.7,12.6,12.6s-5.7,12.6-12.6,12.6H968.5z"/>
		<polygon class="st0" points="1327.2,400.9 1293.6,400.9 1293.6,380.7 1320.8,380.7 1320.8,371.6 1293.6,371.6 1293.6,346.4 
			1327.2,346.4 1327.2,337.4 1284.6,337.4 1284.6,410 1327.2,410 		"/>
		<path class="st0" d="M1253.4,385.7v-14.1h-3.2l0,0h-25v9.1h19v5.1c0,8.3-6.8,15.1-15.1,15.1c-8.3,0-15.1-6.8-15.1-15.1v-24.2
			c0-8.3,6.8-15.1,15.1-15.1c8.3,0,15.1,6.8,15.1,15.1h9.1c0-13.3-10.8-24.2-24.2-24.2s-24.2,10.8-24.2,24.2v24.2
			c0,13.3,10.8,24.2,24.2,24.2C1242.6,410,1253.4,399.1,1253.4,385.7z"/>
		<path class="st0" d="M1093.9,410.7l-22.8-73.4h-13.4l-22.8,73.4l8.7,2.7l7.7-24.7h26.3l7.7,24.7L1093.9,410.7z M1054.1,379.6
			l10.3-33.2h0.1l10.3,33.2H1054.1z"/>
		<polygon class="st0" points="1160.1,409.9 1160,410 1174.1,410 1174,337.3 1164.9,337.3 1165,399.5 1134.6,337.3 1120.5,337.3 
			1120.6,410 1129.7,410 1129.6,347.8 		"/>
	</g>
</g>
<path class="st1" d="M739.8,375.3l-0.2-0.2c-12.7-12.7-33.4-12.7-46.1,0l-20,20c-2.9,2.9-5.1,6.2-6.7,9.7h20l18.2-18.2
	c6.3-6.3,16.7-6.3,23,0l0.2,0.2c4.9,4.9,6,12.1,3.4,18.1h1h16C750.8,394.6,747.8,383.3,739.8,375.3z"/>
<g>
	<path class="st2" d="M728.5,326.4L710,354.7v-43.2l-51.7,51.7c-11.6,11.6-18,26.5-19.1,41.7h27.6c1.6-3.5,3.8-6.8,6.7-9.7l20-20
		c12.7-12.7,33.4-12.7,46.1,0l0.2,0.2c8,8,11,19.2,8.9,29.6h11.6l28.3-18.5l53.5-113.6L728.5,326.4z"/>
	<path class="st2" d="M728.1,386.7c-6.3-6.3-16.7-6.3-23,0l-18.2,18.2h44.8c2.6-6,1.5-13.2-3.4-18.1L728.1,386.7z"/>
</g>
<g>
	<path class="st3" d="M760.2,404.9L760.2,404.9h-11.6c-1.2,6-4.2,11.8-8.9,16.5l-20,20c-12.7,12.7-33.4,12.7-46.1,0l-0.2-0.2
		c-9.8-9.8-12-24.4-6.7-36.3h-27.5c-1.4,18.6,5,37.6,19.1,51.8l0,0c25.7,25.7,67.7,25.7,93.4,0l51.7-51.7L760.2,404.9z"/>
	<path class="st3" d="M685.2,429.9c6.3,6.3,16.7,6.3,23,0l20-20c1.5-1.5,2.6-3.1,3.4-4.9h-44.7l-1.8,1.8c-6.3,6.3-6.3,16.7,0,23
		L685.2,429.9z"/>
</g>
</svg>
